<svg xmlns="http://www.w3.org/2000/svg" xmlns:xlink="http://www.w3.org/1999/xlink" version="1.1" x="0px" y="0px" viewBox="0 0 100 125" enable-background="new 0 0 100 100" xml:space="preserve"><g><polygon fill="none" stroke="#000000" stroke-width="6" stroke-linecap="round" stroke-linejoin="round" stroke-miterlimit="10" points="   50.327,88.302 15,70.746 15,30.137 50.327,47.693 85,29.254 85,69.863  "/><polygon fill="none" stroke="#000000" stroke-width="6" stroke-linecap="round" stroke-linejoin="round" stroke-miterlimit="10" points="   50.327,47.693 15,30.137 50,11.698 85,29.254  "/><line fill="none" stroke="#000000" stroke-width="6" stroke-linecap="round" stroke-linejoin="round" stroke-miterlimit="10" x1="30.997" y1="49.316" x2="23.434" y2="45.557"/><line fill="none" stroke="#000000" stroke-width="6" stroke-linecap="round" stroke-linejoin="round" stroke-miterlimit="10" x1="23.878" y1="56.12" x2="15.514" y2="51.963"/><line fill="none" stroke="#000000" stroke-width="6" stroke-linecap="round" stroke-linejoin="round" stroke-miterlimit="10" x1="42.724" y1="74.468" x2="34.36" y2="70.311"/><line fill="none" stroke="#000000" stroke-width="6" stroke-linecap="round" stroke-linejoin="round" stroke-miterlimit="10" x1="50" y1="58.125" x2="38.768" y2="52.963"/><line fill="none" stroke="#000000" stroke-width="6" stroke-linecap="round" stroke-linejoin="round" stroke-miterlimit="10" x1="26.003" y1="66.662" x2="23.349" y2="65.343"/><line fill="none" stroke="#000000" stroke-width="6" stroke-linecap="round" stroke-linejoin="round" stroke-miterlimit="10" x1="50.327" y1="88.302" x2="50.327" y2="47.693"/><line fill="none" stroke="#000000" stroke-width="6" stroke-linecap="round" stroke-linejoin="round" stroke-miterlimit="10" x1="40.394" y1="63.882" x2="32.029" y2="59.725"/><line fill="none" stroke="#000000" stroke-width="6" stroke-linecap="round" stroke-linejoin="round" stroke-miterlimit="10" x1="77.437" y1="64.783" x2="85" y2="61.024"/><line fill="none" stroke="#000000" stroke-width="6" stroke-linecap="round" stroke-linejoin="round" stroke-miterlimit="10" x1="68.774" y1="59.563" x2="77.139" y2="55.406"/><line fill="none" stroke="#000000" stroke-width="6" stroke-linecap="round" stroke-linejoin="round" stroke-miterlimit="10" x1="58.1" y1="54.81" x2="66.465" y2="50.653"/><line fill="none" stroke="#000000" stroke-width="6" stroke-linecap="round" stroke-linejoin="round" stroke-miterlimit="10" x1="58.222" y1="73.992" x2="69.453" y2="68.83"/><line fill="none" stroke="#000000" stroke-width="6" stroke-linecap="round" stroke-linejoin="round" stroke-miterlimit="10" x1="74.485" y1="45.557" x2="77.139" y2="44.239"/><line fill="none" stroke="#000000" stroke-width="6" stroke-linecap="round" stroke-linejoin="round" stroke-miterlimit="10" x1="51.068" y1="67.422" x2="59.432" y2="63.265"/><line fill="none" stroke="#000000" stroke-width="6" stroke-linecap="round" stroke-linejoin="round" stroke-miterlimit="10" x1="57.005" y1="23.373" x2="49.257" y2="20.012"/><line fill="none" stroke="#000000" stroke-width="6" stroke-linecap="round" stroke-linejoin="round" stroke-miterlimit="10" x1="43.417" y1="26.198" x2="34.605" y2="21.692"/><line fill="none" stroke="#000000" stroke-width="6" stroke-linecap="round" stroke-linejoin="round" stroke-miterlimit="10" x1="56.678" y1="41.879" x2="46.375" y2="36.801"/><line fill="none" stroke="#000000" stroke-width="6" stroke-linecap="round" stroke-linejoin="round" stroke-miterlimit="10" x1="75.812" y1="33.456" x2="64.808" y2="27.825"/><line fill="none" stroke="#000000" stroke-width="6" stroke-linecap="round" stroke-linejoin="round" stroke-miterlimit="10" x1="37.155" y1="32.265" x2="33.605" y2="30.25"/><line fill="none" stroke="#000000" stroke-width="6" stroke-linecap="round" stroke-linejoin="round" stroke-miterlimit="10" x1="60.402" y1="34.139" x2="51.846" y2="30.391"/></g></svg>