<svg version="1.2" xmlns="http://www.w3.org/2000/svg" viewBox="0 0 195 195" width="195" height="195">
	<title>brick_logo-svg-svg</title>
	<style>
		.s0 { fill: none;stroke: #000000;stroke-linecap: round;stroke-linejoin: round;stroke-width: 6 } 
	</style>
	<g style="opacity: .1">
		<path fill-rule="evenodd" class="s0" d="m98.9 140.2l-35.4-17.5v-40.6l35.4 17.5 34.6-18.4v40.6z"/>
		<path fill-rule="evenodd" class="s0" d="m98.9 99.6l-35.4-17.5 35-18.4 35 17.5z"/>
		<path fill-rule="evenodd" class="s0" d="m79.5 101.3l-7.5-3.8"/>
		<path fill-rule="evenodd" class="s0" d="m72.4 108.1l-8.4-4.2"/>
		<path fill-rule="evenodd" class="s0" d="m91.2 126.4l-8.3-4.2"/>
		<path fill-rule="evenodd" class="s0" d="m98.5 110.1l-11.2-5.2"/>
		<path fill-rule="evenodd" class="s0" d="m74.5 118.5l-2.7-1.3"/>
		<path fill-rule="evenodd" class="s0" d="m98.9 140.2v-40.6"/>
		<path fill-rule="evenodd" class="s0" d="m88.9 115.8l-8.4-4.2"/>
		<path fill-rule="evenodd" class="s0" d="m125.9 116.8l7.6-3.8"/>
		<path fill-rule="evenodd" class="s0" d="m117.3 111.5l8.3-4.1"/>
		<path fill-rule="evenodd" class="s0" d="m106.6 106.8l8.3-4.2"/>
		<path fill-rule="evenodd" class="s0" d="m106.7 125.9l11.2-5.1"/>
		<path fill-rule="evenodd" class="s0" d="m123 97.5l2.6-1.3"/>
		<path fill-rule="evenodd" class="s0" d="m99.6 119.4l8.3-4.2"/>
		<path fill-rule="evenodd" class="s0" d="m105.5 75.3l-7.7-3.3"/>
		<path fill-rule="evenodd" class="s0" d="m92 78.2l-8.9-4.5"/>
		<path fill-rule="evenodd" class="s0" d="m105.2 93.8l-10.3-5"/>
		<path fill-rule="evenodd" class="s0" d="m124.3 85.5l-11-5.8"/>
		<path fill-rule="evenodd" class="s0" d="m85.6 84.3l-3.5-2.1"/>
		<path fill-rule="evenodd" class="s0" d="m108.9 86l-8.5-3.6"/>
	</g>
</svg>